<svg width="10" height="10" viewBox="0 0 10 10" fill="none" xmlns="http://www.w3.org/2000/svg">
<path d="M8.99999 4.77778C9.00152 5.36439 8.86446 5.94306 8.59999 6.46667C8.2864 7.09411 7.80432 7.62186 7.20775 7.99079C6.61117 8.35973 5.92366 8.55528 5.22222 8.55556C4.63561 8.55709 4.05694 8.42003 3.53333 8.15556L1 9L1.84444 6.46667C1.57997 5.94306 1.44291 5.36439 1.44444 4.77778C1.44472 4.07634 1.64027 3.38883 2.00921 2.79225C2.37814 2.19568 2.90589 1.7136 3.53333 1.40001C4.05694 1.13554 4.63561 0.998483 5.22222 1.00001H5.44444C6.37081 1.05112 7.24579 1.44213 7.90183 2.09817C8.55787 2.75421 8.94888 3.62919 8.99999 4.55556V4.77778Z" stroke="#EFF1F5" stroke-linecap="round" stroke-linejoin="round"/>
</svg>
